<svg width="47" height="70" viewBox="0 0 47 70" fill="none" xmlns="http://www.w3.org/2000/svg">
<g clip-path="url(#clip0_216_132)">
<path d="M43.3361 45.4883C44.5591 44.8474 46.0703 45.319 46.7111 46.542C47.3115 47.6885 46.9343 49.0887 45.8771 49.7871L45.6564 49.917H45.6554C45.6548 49.9174 45.6535 49.9184 45.6525 49.9189C45.6499 49.9203 45.6457 49.9222 45.6408 49.9248C45.6301 49.9304 45.6138 49.9392 45.5929 49.9502C45.5507 49.9723 45.4872 50.0049 45.4054 50.0479C45.2413 50.134 45 50.2615 44.6935 50.4229C44.0799 50.746 43.2027 51.2091 42.1506 51.7666C40.0448 52.8823 37.239 54.3765 34.4357 55.8945C31.6278 57.4151 28.8383 58.9506 26.759 60.1494C25.8185 60.6916 25.049 61.1516 24.4963 61.502C24.4965 62.148 24.4985 62.9502 24.4982 63.7207C24.498 64.4575 24.4975 65.1702 24.4972 65.6982C24.4971 65.9622 24.4964 66.181 24.4963 66.333V66.5713C24.4949 67.9517 23.3748 69.0703 21.9943 69.0693C20.6139 69.0681 19.4955 67.9477 19.4963 66.5674V66.3301C19.4964 66.1782 19.4971 65.9591 19.4972 65.6953C19.4975 65.1674 19.498 64.4551 19.4982 63.7188C19.4987 62.2408 19.4982 60.6786 19.4963 60.293L19.508 60.04C19.5616 59.4747 19.7902 59.0765 19.8801 58.9297C20.0125 58.7134 20.1527 58.5553 20.2355 58.4668C20.4048 58.286 20.5819 58.1397 20.7023 58.0449C20.9589 57.843 21.2779 57.6263 21.6047 57.415C22.2744 56.9819 23.198 56.4308 24.2619 55.8174C26.4007 54.5843 29.2368 53.0235 32.0539 51.498C34.8755 49.9701 37.6963 48.4674 39.8097 47.3477C40.8665 46.7878 41.7475 46.3228 42.3644 45.998C42.6727 45.8357 42.9157 45.708 43.0812 45.6211C43.1637 45.5778 43.2278 45.5449 43.2707 45.5225C43.2918 45.5114 43.3085 45.5028 43.3195 45.4971C43.3245 45.4944 43.3285 45.4917 43.3312 45.4902L43.3351 45.4883H43.3361ZM0.286302 34.3564C0.887358 33.2101 2.25295 32.7234 3.42888 33.1953L3.6613 33.3027C3.66194 33.3031 3.66398 33.304 3.66521 33.3047C3.66766 33.306 3.67126 33.3081 3.67595 33.3105C3.68549 33.3155 3.69943 33.3233 3.71794 33.333C3.75515 33.3525 3.81038 33.3813 3.882 33.4189C4.02551 33.4944 4.23589 33.6052 4.5031 33.7461C5.03787 34.028 5.80189 34.4315 6.71794 34.918C8.54973 35.8906 10.9955 37.1971 13.4426 38.5293C15.8847 39.8588 18.3483 41.2251 20.2101 42.3135C21.1351 42.8542 21.9473 43.3466 22.5422 43.7422C22.8312 43.9344 23.1252 44.1411 23.3683 44.3418C23.4828 44.4363 23.6564 44.587 23.8234 44.7783C23.9065 44.8735 24.0388 45.0367 24.1623 45.2568C24.2682 45.4457 24.4932 45.8945 24.4963 46.5107C24.4983 46.9126 24.4987 47.8048 24.4982 48.5879C24.498 48.9813 24.4975 49.3507 24.4972 49.6211C24.4971 49.7562 24.4964 49.8675 24.4963 49.9443V50.0645C24.4939 51.4448 23.3728 52.5625 21.9924 52.5605C20.612 52.5583 19.4945 51.437 19.4963 50.0566V49.9375C19.4964 49.8609 19.4971 49.75 19.4972 49.6152C19.4975 49.3454 19.498 48.9772 19.4982 48.585C19.4984 48.302 19.4973 48.0073 19.4972 47.7285C19.0405 47.436 18.4287 47.0637 17.6867 46.6299C15.8926 45.5811 13.4823 44.2445 11.051 42.9209C8.62463 41.6 6.19623 40.302 4.37322 39.334C3.46216 38.8502 2.70312 38.4489 2.17204 38.1689C1.90652 38.029 1.69776 37.9193 1.55583 37.8447C1.48496 37.8075 1.43018 37.7789 1.39372 37.7598C1.37569 37.7503 1.36182 37.7431 1.35271 37.7383C1.3485 37.7361 1.34517 37.7346 1.34294 37.7334C1.34181 37.7328 1.34056 37.7317 1.34001 37.7314H1.33904C0.11646 37.0903 -0.354508 35.5792 0.286302 34.3564ZM36.4474 23.3008C37.6993 22.7199 39.1861 23.264 39.7677 24.5156C40.3492 25.7677 39.8049 27.2543 38.5529 27.8359L38.5431 27.8408C38.536 27.8441 38.5241 27.8499 38.5099 27.8564C38.4812 27.8698 38.4377 27.8901 38.382 27.916C38.2697 27.9684 38.1038 28.0452 37.8937 28.1436C37.4726 28.3406 36.8702 28.6242 36.1476 28.9658C34.7009 29.6499 32.7746 30.5681 30.8517 31.5098C28.9222 32.4547 27.0204 33.4112 25.6125 34.1719C25.1753 34.4081 24.803 34.6174 24.5011 34.7939C24.5014 34.9991 24.5007 35.2096 24.5011 35.4121C24.5019 35.7549 24.5034 36.0747 24.5041 36.3076C24.5044 36.4235 24.5048 36.5192 24.5051 36.585V36.6875C24.5091 37.9879 23.5189 39.0578 22.2502 39.1816C22.2202 39.1847 22.1896 39.1846 22.1593 39.1865C22.111 39.1895 22.0619 39.1951 22.0129 39.1953C22.0087 39.1953 22.0043 39.1944 22.0002 39.1943C21.9964 39.1943 21.9922 39.1953 21.9885 39.1953C21.9393 39.1951 21.8904 39.1895 21.842 39.1865C21.8117 39.1846 21.7811 39.1847 21.7511 39.1816C20.4825 39.0577 19.4922 37.9878 19.4963 36.6875V36.585C19.4965 36.5192 19.4969 36.4235 19.4972 36.3076C19.4979 36.0747 19.4994 35.7549 19.5002 35.4121C19.5006 35.1935 19.4999 34.9657 19.5002 34.7451C19.2235 34.5725 18.883 34.368 18.4826 34.1367C17.1693 33.3782 15.3935 32.424 13.589 31.4795C11.7914 30.5385 9.99071 29.6203 8.63786 28.9365C7.96201 28.5949 7.39781 28.3122 7.00408 28.1152C6.80759 28.0169 6.65293 27.94 6.54802 27.8877C6.49595 27.8618 6.45571 27.8415 6.42888 27.8281C6.41574 27.8216 6.40526 27.8158 6.39861 27.8125C6.39543 27.8109 6.39239 27.8094 6.39079 27.8086H6.38884V27.8076C5.15236 27.1936 4.64706 25.6936 5.26091 24.457C5.87491 23.221 7.3751 22.7158 8.6115 23.3291H8.61247V23.3301L8.61443 23.3311C8.61627 23.332 8.61977 23.3333 8.62322 23.335L8.77751 23.4121C8.88475 23.4655 9.04214 23.5439 9.24138 23.6436C9.64022 23.8431 10.21 24.1286 10.8927 24.4736C12.2578 25.1636 14.082 26.0938 15.9084 27.0498C17.7281 28.0023 19.5779 28.9949 20.9836 29.8066C21.36 30.024 21.718 30.2374 22.0431 30.4385C22.4053 30.228 22.8094 30.0032 23.2365 29.7725C24.7348 28.9629 26.7083 27.9716 28.6525 27.0195C30.6032 26.0643 32.5515 25.1349 34.0099 24.4453C34.7394 24.1004 35.3485 23.8147 35.7746 23.6152C35.9873 23.5157 36.1552 23.4372 36.2697 23.3838C36.3267 23.3572 36.3718 23.3361 36.4015 23.3223C36.4158 23.3156 36.4272 23.3102 36.4347 23.3066C36.4381 23.3051 36.4416 23.3036 36.4435 23.3027L36.4465 23.3018L37.5002 25.5684L36.4474 23.3008ZM21.9992 1.55692e-09C23.3798 0.000414943 24.4994 1.11948 24.4992 2.5H21.9992L24.4992 2.50098V2.69043C24.4992 2.8144 24.4983 2.9968 24.4982 3.22852C24.4981 3.69213 24.4984 4.35531 24.4982 5.15332C24.4978 6.74998 24.4976 8.88728 24.4972 11.0488C24.497 12.5301 24.4975 14.0207 24.4972 15.3564C25.1421 14.9664 25.8174 14.5663 26.4855 14.1758C27.9403 13.3255 29.3918 12.5015 30.4777 11.8916C31.0211 11.5864 31.4745 11.3336 31.7922 11.1572C31.9509 11.0691 32.0766 10.9995 32.1623 10.9521C32.2046 10.9288 32.2376 10.9107 32.2599 10.8984C32.2709 10.8924 32.2795 10.887 32.2853 10.8838C32.2879 10.8824 32.2906 10.8816 32.2922 10.8809L32.2941 10.8799C33.5038 10.2143 35.025 10.6546 35.6906 11.8643C36.3146 12.9983 35.9657 14.4051 34.923 15.125L34.7052 15.2598L34.6974 15.2637C34.6922 15.2666 34.6842 15.2717 34.674 15.2773C34.6529 15.289 34.6213 15.3064 34.5802 15.3291C34.4973 15.3749 34.3746 15.4429 34.2189 15.5293C33.9073 15.7023 33.4609 15.9505 32.926 16.251C31.8544 16.8528 30.4292 17.6615 29.008 18.4922C27.5792 19.3273 26.1843 20.1676 25.1593 20.8369C24.9037 21.0039 24.683 21.1524 24.4982 21.2813C24.4983 21.5377 24.4994 21.8046 24.4992 22.0566C24.4989 22.4008 24.4985 22.7205 24.4982 22.9541V23.3359C24.4958 24.7166 23.374 25.8343 21.9933 25.832L21.9924 25.8311V25.832C20.6119 25.8296 19.4942 24.7086 19.4963 23.3281V23.2256C19.4964 23.1598 19.4971 23.0646 19.4972 22.9482C19.4975 22.7152 19.498 22.396 19.4982 22.0527C19.4987 21.3632 19.4982 20.5849 19.4963 20.2002L19.4972 20.1563C19.4954 19.5472 19.4965 15.2428 19.4972 11.0488C19.4976 8.88703 19.4978 6.74917 19.4982 5.15234C19.4984 4.35401 19.4981 3.69026 19.4982 3.22656C19.4983 2.99489 19.4992 2.81243 19.4992 2.68848V2.49902L19.5119 2.24316C19.6403 0.982848 20.7051 -4.51699e-05 21.9992 1.55692e-09Z" fill="#CFB195"/>
<circle cx="14" cy="16" r="4" fill="#ED6E6E"/>
<circle cx="30" cy="43" r="4" fill="#ED6E6E"/>
</g>
<defs>
<clipPath id="clip0_216_132">
<rect width="46.997" height="69.0693" fill="white"/>
</clipPath>
</defs>
</svg>
